<svg width="800" height="800" viewBox="0 0 800 800" fill="none" xmlns="http://www.w3.org/2000/svg">
<path d="M166.667 300H633.333M500 600V500M300 600H300.333M400 600H400.333M400 500H400.333M300 500H300.333M500 400H500.333M400 400H400.333M300 400H300.333M273.333 700H526.667C564.003 700 582.673 700 596.933 692.733C609.477 686.343 619.676 676.143 626.066 663.6C633.333 649.34 633.333 630.67 633.333 593.333V206.667C633.333 169.33 633.333 150.661 626.066 136.401C619.676 123.856 609.477 113.658 596.933 107.266C582.673 100 564.003 100 526.667 100H273.333C235.996 100 217.328 100 203.067 107.266C190.523 113.658 180.324 123.856 173.933 136.401C166.667 150.661 166.667 169.33 166.667 206.667V593.333C166.667 630.67 166.667 649.34 173.933 663.6C180.324 676.143 190.523 686.343 203.067 692.733C217.328 700 235.996 700 273.333 700Z" stroke="#384D6C" stroke-width="66.6667" stroke-linecap="round" stroke-linejoin="round"/>
</svg>
