<svg width="800" height="800" viewBox="0 0 800 800" fill="none" xmlns="http://www.w3.org/2000/svg">
<path d="M89.6453 223.485C84.2063 210.795 69.5093 204.916 56.8186 210.355C44.128 215.794 38.249 230.491 43.688 243.181L89.6453 223.485ZM301.382 457.923C308.912 446.353 305.635 430.867 294.062 423.337C282.489 415.807 267.003 419.083 259.472 430.657L301.382 457.923ZM212.379 503.033C204.848 514.603 208.126 530.09 219.699 537.62C231.272 545.15 246.758 541.873 254.288 530.3L212.379 503.033ZM756.313 243.181C761.75 230.491 755.873 215.794 743.18 210.355C730.49 204.916 715.793 210.795 710.353 223.485L756.313 243.181ZM665.657 438.64C675.42 448.403 691.247 448.403 701.01 438.64C710.773 428.877 710.773 413.047 701.01 403.283L665.657 438.64ZM375 550C375 563.807 386.193 575 400 575C413.807 575 425 563.807 425 550H375ZM545.713 530.3C553.243 541.873 568.73 545.15 580.3 537.62C591.873 530.09 595.15 514.603 587.62 503.033L545.713 530.3ZM184.344 388.64C194.107 378.877 194.107 363.047 184.344 353.283C174.581 343.52 158.752 343.52 148.989 353.283L184.344 388.64ZM98.989 403.283C89.226 413.047 89.226 428.877 98.989 438.64C108.752 448.403 124.581 448.403 134.344 438.64L98.989 403.283ZM400 441.667C292.537 441.667 215.378 388.153 164.153 332.989C138.548 305.414 119.775 277.761 107.42 257.005C101.256 246.65 96.729 238.077 93.78 232.179C92.3063 229.232 91.2296 226.958 90.5423 225.47C90.199 224.727 89.953 224.18 89.8036 223.844C89.729 223.677 89.6716 223.546 89.6453 223.485C89.6446 223.484 89.6463 223.488 89.6453 223.485C89.6486 223.493 89.6453 223.485 66.6666 233.333C43.688 243.181 43.683 243.17 43.688 243.181C43.69 243.186 43.7046 243.22 43.709 243.23C43.7173 243.25 43.7276 243.273 43.7393 243.3C43.7623 243.354 43.792 243.422 43.8276 243.504C43.8993 243.668 43.996 243.887 44.1176 244.161C44.361 244.708 44.705 245.472 45.151 246.437C46.0423 248.367 47.342 251.107 49.0586 254.54C52.4896 261.402 57.598 271.058 64.4553 282.579C78.1416 305.572 98.9516 336.253 127.513 367.01C184.622 428.513 274.13 491.667 400 491.667V441.667ZM510.417 421.027C478.07 433.76 441.39 441.667 400 441.667V491.667C447.94 491.667 490.82 482.473 528.73 467.553L510.417 421.027ZM259.472 430.657L212.379 503.033L254.288 530.3L301.382 457.923L259.472 430.657ZM733.333 233.333C710.353 223.485 710.35 223.49 710.353 223.485C710.357 223.48 710.37 223.45 710.37 223.453C710.367 223.46 710.357 223.484 710.337 223.525C710.3 223.608 710.233 223.758 710.137 223.975C709.943 224.408 709.63 225.103 709.193 226.042C708.317 227.919 706.953 230.765 705.087 234.422C701.353 241.742 695.633 252.277 687.847 264.773C672.23 289.839 648.543 322.399 616.223 352.733L650.443 389.19C686.743 355.117 713.057 318.862 730.283 291.215C738.92 277.356 745.333 265.56 749.63 257.138C751.777 252.925 753.4 249.548 754.51 247.169C755.063 245.98 755.49 245.039 755.79 244.368C755.94 244.032 756.06 243.764 756.147 243.565C756.19 243.466 756.223 243.384 756.253 243.32C756.267 243.288 756.277 243.26 756.287 243.237C756.293 243.226 756.31 243.191 756.313 243.181C756.313 243.184 756.317 243.177 756.313 243.181C756.317 243.176 756.313 243.181 733.333 233.333ZM616.223 352.733C587.59 379.607 552.463 404.477 510.417 421.027L528.73 467.553C577.85 448.22 618.22 419.433 650.443 389.19L616.223 352.733ZM615.657 388.64L665.657 438.64L701.01 403.283L651.01 353.283L615.657 388.64ZM375 466.667V550H425V466.667H375ZM498.62 457.923L545.713 530.3L587.62 503.033L540.527 430.657L498.62 457.923ZM148.989 353.283L98.989 403.283L134.344 438.64L184.344 388.64L148.989 353.283Z" fill="#ABB1BB"/>
</svg>
