<svg width="800" height="800" viewBox="0 0 800 800" fill="none" xmlns="http://www.w3.org/2000/svg">
<path d="M109.163 509.857C80.832 473.05 66.6667 454.647 66.6667 400C66.6667 345.353 80.832 326.951 109.163 290.144C165.732 216.652 260.604 133.333 400 133.333C539.397 133.333 634.267 216.652 690.837 290.144C719.167 326.951 733.333 345.353 733.333 400C733.333 454.647 719.167 473.05 690.837 509.857C634.267 583.347 539.397 666.667 400 666.667C260.604 666.667 165.732 583.347 109.163 509.857Z" stroke="#ABB1BB" stroke-width="50"/>
<path d="M500 400C500 455.23 455.23 500 400 500C344.77 500 300 455.23 300 400C300 344.77 344.77 300 400 300C455.23 300 500 344.77 500 400Z" stroke="#ABB1BB" stroke-width="50"/>
</svg>
