<svg width="25" height="24" viewBox="0 0 25 24" fill="none" xmlns="http://www.w3.org/2000/svg">
<path d="M17.6003 0H7.89973C3.95735 0 0.75 3.20735 0.75 7.14973V16.8503C0.75 20.7926 3.95735 24 7.89973 24H17.6003C21.5426 24 24.75 20.7926 24.75 16.8503V7.14973C24.75 3.20735 21.5426 0 17.6003 0ZM22.3356 16.8503C22.3356 19.4655 20.2155 21.5856 17.6003 21.5856H7.89973C5.2845 21.5856 3.1644 19.4655 3.1644 16.8503V7.14973C3.1644 4.53446 5.2845 2.4144 7.89973 2.4144H17.6003C20.2155 2.4144 22.3356 4.53446 22.3356 7.14973V16.8503Z" fill="url(#paint0_linear_148_2374)"/>
<path d="M12.75 5.79272C9.32729 5.79272 6.54272 8.57729 6.54272 11.9999C6.54272 15.4226 9.32729 18.2072 12.75 18.2072C16.1727 18.2072 18.9572 15.4226 18.9572 11.9999C18.9572 8.57725 16.1727 5.79272 12.75 5.79272ZM12.75 15.7928C10.6552 15.7928 8.95712 14.0947 8.95712 12C8.95712 9.90523 10.6553 8.20712 12.75 8.20712C14.8447 8.20712 16.5428 9.90523 16.5428 12C16.5428 14.0947 14.8447 15.7928 12.75 15.7928Z" fill="url(#paint1_linear_148_2374)"/>
<path d="M18.9693 7.3267C19.7908 7.3267 20.4567 6.66077 20.4567 5.83931C20.4567 5.01785 19.7908 4.35193 18.9693 4.35193C18.1479 4.35193 17.4819 5.01785 17.4819 5.83931C17.4819 6.66077 18.1479 7.3267 18.9693 7.3267Z" fill="url(#paint2_linear_148_2374)"/>
<defs>
<linearGradient id="paint0_linear_148_2374" x1="12.75" y1="23.9301" x2="12.75" y2="0.186412" gradientUnits="userSpaceOnUse">
<stop stop-color="#E09B3D"/>
<stop offset="0.3" stop-color="#C74C4D"/>
<stop offset="0.6" stop-color="#C21975"/>
<stop offset="1" stop-color="#7024C4"/>
</linearGradient>
<linearGradient id="paint1_linear_148_2374" x1="12.75" y1="23.9301" x2="12.75" y2="0.186392" gradientUnits="userSpaceOnUse">
<stop stop-color="#E09B3D"/>
<stop offset="0.3" stop-color="#C74C4D"/>
<stop offset="0.6" stop-color="#C21975"/>
<stop offset="1" stop-color="#7024C4"/>
</linearGradient>
<linearGradient id="paint2_linear_148_2374" x1="18.9693" y1="23.9301" x2="18.9693" y2="0.186379" gradientUnits="userSpaceOnUse">
<stop stop-color="#E09B3D"/>
<stop offset="0.3" stop-color="#C74C4D"/>
<stop offset="0.6" stop-color="#C21975"/>
<stop offset="1" stop-color="#7024C4"/>
</linearGradient>
</defs>
</svg>
