<svg width="24" height="24" viewBox="0 0 24 24" fill="none" xmlns="http://www.w3.org/2000/svg">
<path d="M8.53593 12.4406C6.6328 12.4406 5.0953 13.9781 5.12343 15.8625C5.14218 17.0719 5.8078 18.1219 6.78749 18.7078C6.45468 18.1969 6.2578 17.5922 6.24843 16.9406C6.2203 15.0562 7.7578 13.5187 9.66093 13.5187C10.0359 13.5187 10.3969 13.5797 10.7344 13.6875V9.91404C10.3828 9.86248 10.0219 9.83435 9.66093 9.83435C9.64218 9.83435 9.62811 9.83435 9.60936 9.83435V12.6094C9.27186 12.5015 8.91093 12.4406 8.53593 12.4406Z" fill="#F00044"/>
<path d="M16.7626 1.125H16.7345H15.7595C16.0408 2.53594 16.833 3.76406 17.9392 4.59844C17.2126 3.6375 16.772 2.4375 16.7626 1.125Z" fill="#F00044"/>
<path d="M22.5001 6.86716C22.1298 6.86716 21.7735 6.82966 21.422 6.76404V9.46873C20.147 9.46873 18.9095 9.22029 17.747 8.72341C16.997 8.40466 16.2985 7.99685 15.6563 7.50466L15.6751 15.8437C15.6657 17.7187 14.9251 19.4765 13.5845 20.8031C12.4923 21.8812 11.1095 22.5703 9.60947 22.7906C9.25791 22.8422 8.89697 22.8703 8.53603 22.8703C6.93291 22.8703 5.40479 22.35 4.1626 21.389C4.30322 21.5578 4.45322 21.7219 4.61728 21.8812C5.96728 23.2125 7.75791 23.9484 9.66572 23.9484C10.0267 23.9484 10.3876 23.9203 10.7392 23.8687C12.2392 23.6484 13.622 22.9594 14.7142 21.8812C16.0548 20.5547 16.7954 18.7969 16.8048 16.9219L16.7345 8.58279C17.372 9.07498 18.0704 9.48748 18.8251 9.80154C19.9923 10.2937 21.2298 10.5469 22.5001 10.5469" fill="#F00044"/>
<path d="M4.60324 11.9109C5.93918 10.5844 7.71574 9.84841 9.60949 9.83435V8.83591C9.25793 8.78435 8.89699 8.75623 8.53606 8.75623C6.62356 8.75623 4.82824 9.49216 3.47824 10.8328C2.15168 12.15 1.39231 13.95 1.39699 15.8203C1.39699 17.7047 2.14231 19.4718 3.48762 20.8078C3.70324 21.0187 3.92356 21.2156 4.15793 21.3937C3.09856 20.1328 2.52199 18.5578 2.51731 16.8984C2.52199 15.0281 3.27668 13.2281 4.60324 11.9109Z" fill="#08FFF9"/>
<path d="M21.422 6.76401V5.76089H21.4126C20.1095 5.76089 18.9095 5.32964 17.9438 4.59839C18.7829 5.70464 20.011 6.49214 21.422 6.76401Z" fill="#08FFF9"/>
<path d="M9.46885 20.2594C9.91416 20.2828 10.3407 20.2219 10.7345 20.0953C12.0938 19.65 13.0735 18.3844 13.0735 16.8937L13.0782 11.3156V1.125H15.7595C15.6892 0.773438 15.6517 0.417188 15.647 0.046875H11.9532V10.2328L11.9485 15.8109C11.9485 17.3016 10.9688 18.5672 9.60947 19.0125C9.21572 19.1438 8.78916 19.2047 8.34385 19.1766C7.77666 19.1438 7.24697 18.975 6.7876 18.7031C7.36416 19.5938 8.34854 20.1984 9.46885 20.2594Z" fill="#08FFF9"/>
<path d="M9.60949 22.7906C11.1095 22.5703 12.4923 21.8812 13.5845 20.8031C14.9251 19.4766 15.6657 17.7188 15.6751 15.8438L15.6564 7.50469C16.2939 7.99688 16.9923 8.40938 17.747 8.72344C18.9142 9.21563 20.1517 9.46875 21.422 9.46875V6.76406C20.0111 6.49219 18.7829 5.70469 17.9439 4.59844C16.8376 3.76406 16.0407 2.53594 15.7642 1.125H13.0782V11.3109L13.0736 16.8891C13.0736 18.3797 12.0939 19.6453 10.7345 20.0906C10.3407 20.2219 9.91418 20.2828 9.46887 20.2547C8.34387 20.1938 7.36418 19.5891 6.78762 18.7031C5.80793 18.1219 5.14231 17.0672 5.12356 15.8578C5.09543 13.9734 6.63293 12.4359 8.53606 12.4359C8.91106 12.4359 9.27199 12.4969 9.60949 12.6047V9.82969C7.71574 9.84375 5.93918 10.5797 4.60324 11.9062C3.27668 13.2234 2.51731 15.0234 2.52199 16.8891C2.52199 18.5484 3.09856 20.1234 4.16262 21.3844C5.40949 22.3453 6.93293 22.8656 8.53606 22.8656C8.89699 22.8703 9.25793 22.8422 9.60949 22.7906Z" fill="black"/>
</svg>
